<?xml version="1.0" standalone="no"?>
<!DOCTYPE svg PUBLIC "-//W3C//DTD SVG 20010904//EN"
 "http://www.w3.org/TR/2001/REC-SVG-20010904/DTD/svg10.dtd">
<svg version="1.0" xmlns="http://www.w3.org/2000/svg"
 width="1280.000000pt" height="925.000000pt" viewBox="0 0 1280.000000 925.000000"
 preserveAspectRatio="xMidYMid meet">
<metadata>
Created by potrace 1.15, written by Peter Selinger 2001-2017
</metadata>
<g transform="translate(0.000000,925.000000) scale(0.100000,-0.100000)"
fill="#ffffff" stroke="none">
<path d="M8465 9239 c-185 -23 -382 -118 -516 -250 -144 -141 -217 -286 -242
-481 -50 -391 242 -785 674 -908 93 -27 302 -38 407 -21 144 22 280 83 412
182 231 174 354 448 321 712 -24 188 -99 343 -233 483 -218 227 -497 323 -823
283z"/>
<path d="M7040 8159 c-842 -43 -1743 -423 -2565 -1080 -480 -384 -988 -897
-1290 -1304 -73 -98 -145 -211 -145 -228 0 -9 93 -25 240 -42 74 -9 171 -20
215 -25 44 -6 145 -17 225 -25 206 -21 451 -49 783 -91 l288 -37 87 41 c250
118 764 317 1057 411 379 122 875 220 1225 242 273 18 632 6 811 -27 306 -55
528 -126 741 -236 248 -127 448 -289 664 -539 79 -91 86 -97 130 -103 84 -11
854 -7 854 5 0 16 -78 95 -530 537 -1183 1158 -1937 1898 -2220 2178 -173 171
-325 317 -337 323 -12 6 -37 10 -55 9 -18 0 -98 -4 -178 -9z"/>
<path d="M9876 6808 c4 -13 71 -97 149 -188 542 -630 783 -1071 762 -1396 -4
-72 -11 -98 -41 -159 -85 -172 -252 -252 -576 -275 -143 -11 -763 -6 -848 6
-41 6 -46 11 -129 123 -332 449 -761 691 -1358 767 -173 22 -519 22 -720 0
-610 -66 -1239 -251 -2010 -590 -225 -99 -232 -101 -300 -99 -102 2 -1921 225
-1986 243 -35 10 -37 12 -99 173 -144 372 -243 565 -346 676 -59 64 -103 96
-156 112 -19 6 -247 14 -528 19 -272 5 -709 14 -970 20 -288 6 -478 6 -483 1
-12 -12 -47 -189 -153 -769 -77 -427 -86 -485 -72 -498 8 -9 65 -22 139 -34
318 -49 745 -149 1091 -256 807 -249 1436 -574 1923 -995 372 -321 653 -759
765 -1195 48 -184 60 -306 60 -594 0 -143 3 -260 6 -260 10 0 194 -27 544 -80
179 -27 712 -108 1185 -180 764 -116 1393 -212 2330 -355 788 -121 1017 -155
1035 -155 18 0 18 2 5 38 -7 20 -27 67 -44 103 -42 93 -104 277 -130 385 -26
113 -51 322 -51 430 0 624 313 1240 821 1619 315 235 649 368 1069 426 122 17
461 17 565 0 70 -11 299 -62 348 -77 13 -4 17 0 17 18 0 16 -52 75 -187 210
-168 169 -184 187 -162 192 13 3 139 8 279 11 289 7 426 23 552 65 108 36 162
71 192 124 34 58 39 105 21 181 -73 317 -594 848 -1515 1547 -324 245 -962
688 -992 688 -5 0 -6 -10 -2 -22z"/>
<path d="M1640 3603 c-240 -36 -401 -79 -567 -151 -387 -168 -728 -522 -905
-939 -55 -131 -90 -244 -120 -398 -30 -150 -32 -469 -4 -620 47 -252 138 -476
281 -690 75 -114 117 -163 221 -266 300 -292 570 -433 984 -511 93 -18 151
-22 305 -22 168 0 206 4 325 28 325 67 566 180 817 383 577 467 806 1264 567
1973 -193 569 -664 1008 -1246 1160 -173 45 -292 60 -473 59 -88 -1 -171 -3
-185 -6z m391 -569 c262 -45 490 -162 671 -345 240 -243 358 -528 358 -864 0
-356 -137 -671 -399 -916 -322 -302 -795 -406 -1231 -270 -279 87 -560 333
-703 616 -134 267 -164 603 -81 894 97 339 348 625 695 790 200 96 469 133
690 95z"/>
<path d="M1640 2760 c-313 -67 -557 -259 -690 -543 -56 -121 -82 -230 -87
-377 -5 -109 -2 -140 20 -236 81 -357 342 -630 692 -726 66 -18 108 -21 240
-22 143 0 171 3 259 27 532 144 839 670 695 1196 -92 340 -384 614 -731 685
-104 22 -288 20 -398 -4z"/>
<path d="M10840 3554 c-709 -88 -1292 -553 -1507 -1204 -71 -213 -88 -322 -88
-565 0 -220 7 -279 52 -460 160 -645 694 -1149 1362 -1286 128 -27 432 -37
579 -19 413 49 824 265 1110 584 193 214 344 507 406 786 92 419 44 812 -145
1195 -172 349 -446 621 -804 795 -252 124 -452 171 -740 175 -104 2 -206 1
-225 -1z m325 -555 c268 -33 498 -145 695 -339 154 -151 248 -300 311 -492
185 -567 -73 -1191 -605 -1462 -284 -145 -617 -174 -916 -81 -358 113 -666
414 -785 769 -48 142 -58 211 -59 386 0 172 6 220 50 368 168 563 722 923
1309 851z"/>
<path d="M10905 2744 c-233 -37 -423 -133 -571 -286 -205 -213 -304 -488 -274
-761 45 -400 297 -707 677 -824 82 -25 101 -27 273 -27 215 -1 282 13 430 90
240 124 420 341 495 599 38 128 45 312 17 445 -78 375 -341 652 -704 740 -81
20 -280 34 -343 24z"/>
</g>
</svg>
