<?xml version="1.0" standalone="no"?>
<!DOCTYPE svg PUBLIC "-//W3C//DTD SVG 20010904//EN"
 "http://www.w3.org/TR/2001/REC-SVG-20010904/DTD/svg10.dtd">
<svg version="1.0" xmlns="http://www.w3.org/2000/svg"
 width="1280.000000pt" height="709.000000pt" viewBox="0 0 1280.000000 709.000000"
 preserveAspectRatio="xMidYMid meet">
<metadata>
Created by potrace 1.15, written by Peter Selinger 2001-2017
</metadata>
<g transform="translate(0.000000,709.000000) scale(0.100000,-0.100000)"
fill="#ffffff" stroke="none">
<path d="M9700 7067 c-66 -27 -200 -107 -302 -180 -40 -28 -108 -69 -150 -91
-94 -47 -117 -68 -97 -92 20 -24 122 -92 190 -125 32 -16 59 -33 59 -38 0 -4
-27 -29 -60 -55 -91 -70 -100 -110 -44 -177 20 -24 31 -45 25 -47 -6 -2 -11
-15 -11 -29 0 -14 -9 -36 -20 -50 -11 -14 -20 -32 -20 -40 0 -7 -17 -32 -38
-56 -21 -23 -60 -72 -87 -109 -28 -37 -56 -70 -64 -73 -7 -3 -32 8 -54 25 -86
63 -163 28 -195 -90 l-17 -65 -40 0 -40 0 -55 105 c-55 104 -55 105 -99 113
-29 6 -58 5 -82 -2 -54 -16 -98 -13 -149 10 -61 28 -90 39 -90 34 0 -2 26 -15
58 -30 91 -41 158 -85 175 -115 9 -15 14 -30 10 -34 -13 -12 -32 -6 -38 14 -8
26 -84 80 -180 128 -144 72 -469 166 -815 236 -222 45 -480 45 -673 1 -273
-61 -501 -150 -787 -306 -257 -140 -356 -219 -457 -369 -41 -61 -123 -217
-123 -235 0 -23 -24 -18 -77 15 -98 60 -230 78 -668 90 -383 11 -558 23 -650
45 -89 22 -284 124 -412 215 -109 78 -111 80 -122 130 -16 72 -67 169 -161
300 -116 163 -128 174 -246 220 -186 73 -244 81 -675 101 -246 11 -872 10
-884 -2 -14 -14 14 -40 153 -139 83 -59 152 -116 159 -131 14 -29 165 -156
324 -273 163 -121 167 -124 204 -182 44 -68 71 -82 123 -65 38 13 42 12 118
-30 61 -33 111 -74 224 -184 170 -165 170 -166 337 -251 298 -153 651 -350
690 -386 32 -28 51 -38 76 -38 43 0 300 -128 342 -170 l30 -30 -31 0 c-18 0
-37 7 -44 15 -9 11 -34 15 -97 15 l-84 0 -50 -47 c-56 -53 -143 -165 -159
-207 -8 -22 -5 -49 15 -130 32 -134 85 -549 72 -563 -13 -12 -183 104 -298
203 -223 193 -249 210 -410 288 -162 78 -371 160 -390 154 -7 -2 30 -40 82
-85 145 -126 293 -282 445 -473 59 -73 128 -170 122 -170 -2 0 -32 28 -68 62
-295 281 -662 466 -1055 532 -303 51 -579 36 -875 -49 -312 -90 -598 -256
-833 -485 -298 -288 -497 -625 -592 -999 -67 -266 -80 -478 -44 -736 65 -471
244 -846 558 -1168 97 -99 327 -247 549 -353 163 -77 196 -89 334 -120 84 -18
203 -41 263 -51 132 -20 384 -23 540 -6 172 18 431 100 624 198 178 89 438
296 597 472 220 246 330 434 421 717 29 92 43 109 98 122 l30 7 -32 -34 c-60
-63 -77 -144 -51 -232 23 -77 83 -123 353 -272 l250 -138 130 -8 c72 -5 366
-13 655 -20 289 -6 568 -15 620 -20 156 -15 384 -27 570 -31 144 -2 186 0 235
14 41 12 128 21 275 28 417 21 514 22 625 10 140 -15 294 -28 415 -36 81 -6
97 -4 109 10 11 14 37 16 170 16 134 -1 391 -17 554 -36 58 -7 93 0 101 22 3
9 17 154 31 322 14 169 32 377 40 462 36 363 39 403 22 415 -14 10 -14 12 2
22 14 8 20 37 30 134 41 410 104 552 334 751 37 32 72 58 77 58 21 0 8 -32
-44 -104 -104 -146 -189 -336 -245 -556 -107 -418 -53 -883 154 -1317 110
-229 237 -405 422 -584 125 -119 229 -196 376 -278 210 -117 358 -176 594
-235 284 -72 471 -82 690 -37 299 62 540 199 793 451 203 203 303 352 401 597
141 355 142 786 3 1223 -62 197 -170 405 -299 576 -91 120 -276 315 -364 382
-40 31 -80 62 -89 69 -10 9 -13 22 -8 44 5 26 1 36 -25 60 -133 124 -457 267
-723 318 -93 18 -385 51 -454 51 -16 0 -22 5 -20 15 3 17 337 177 539 259 153
62 172 75 198 130 12 26 39 66 59 89 101 113 142 169 142 198 0 19 -5 29 -15
29 -8 0 -15 6 -15 14 0 14 9 16 102 34 60 11 91 38 85 72 -13 60 -82 235 -142
355 -91 181 -388 610 -548 790 -30 33 -114 132 -187 219 -241 286 -915 945
-1084 1060 -47 32 -75 32 -146 3z m-721 -1178 c40 -14 39 -25 -5 -44 -28 -11
-40 -12 -50 -4 -17 14 -18 31 -2 47 15 15 17 15 57 1z m1131 -124 c33 -14 73
-25 89 -25 23 0 47 -14 93 -56 75 -67 82 -78 68 -105 -6 -11 -10 -47 -8 -81
l3 -60 -80 -30 c-88 -32 -128 -32 -214 2 -41 16 -47 22 -53 56 -3 22 -2 73 4
115 9 62 8 85 -5 129 -25 86 -1 99 103 55z m-200 -106 c11 -26 11 -33 -4 -47
-16 -16 -18 -16 -32 2 -17 24 -18 48 -2 64 18 18 24 15 38 -19z m-4450 -2178
c0 -5 -7 -14 -15 -21 -8 -7 -15 -25 -15 -40 0 -15 -6 -33 -13 -39 -19 -15 -77
-26 -77 -14 0 5 23 35 51 66 48 54 69 69 69 48z m-3537 -123 c16 -12 15 -23
-8 -158 -14 -80 -25 -163 -25 -185 0 -51 -18 -87 -52 -103 -42 -20 -68 -2
-165 115 -139 169 -138 167 -124 201 7 17 23 39 35 51 26 24 115 57 206 76 85
17 113 18 133 3z m390 -18 c124 -39 114 -85 -51 -237 -174 -160 -178 -163
-221 -163 -21 0 -44 6 -50 13 -8 10 -9 64 -3 187 l8 172 33 30 c34 30 35 31
125 25 51 -3 121 -14 159 -27z m2547 -47 c7 -7 -58 -63 -73 -63 -23 1 -69 50
-63 67 5 13 17 14 69 8 34 -3 64 -9 67 -12z m-226 -18 c-4 -8 -1 -21 5 -29 22
-26 -3 -26 -31 1 -36 34 -35 43 2 43 22 0 28 -4 24 -15z m-3187 -50 c22 -15
237 -309 249 -338 3 -10 -18 -29 -68 -60 -239 -150 -371 -375 -383 -657 l-4
-95 -38 3 c-159 14 -397 52 -411 66 -14 14 -15 29 -5 128 41 395 216 699 522
907 53 36 94 58 111 60 3 1 15 -6 27 -14z m9643 -195 c11 -7 7 -10 -17 -10
-18 0 -33 5 -33 10 0 13 30 13 50 0z m30 -105 c16 -19 3 -40 -16 -24 -15 13
-19 39 -5 39 5 0 14 -7 21 -15z m70 -40 c16 -19 3 -40 -16 -24 -15 13 -19 39
-5 39 5 0 14 -7 21 -15z m298 -21 c28 -18 28 -34 0 -34 -22 0 -68 36 -68 52 0
11 37 1 68 -18z m-9804 -63 c9 -14 -4 -41 -19 -41 -18 0 -28 17 -21 35 6 17
32 20 40 6z m9576 -7 c5 -5 4 -38 -2 -81 -10 -61 -15 -73 -30 -73 -13 0 -29
21 -53 72 -48 99 -47 101 20 96 31 -3 60 -9 65 -14z m-1075 -135 c14 -26 25
-55 25 -62 0 -8 -23 -33 -51 -57 -45 -38 -53 -41 -75 -31 -22 10 -24 15 -18
45 4 24 1 43 -12 65 -17 29 -17 30 8 63 23 30 31 34 62 30 32 -4 40 -10 61
-53z m-8588 30 c16 -16 5 -39 -18 -39 -12 0 -19 7 -19 18 0 31 17 41 37 21z
m143 -28 c0 -12 -20 -25 -27 -18 -7 7 6 27 18 27 5 0 9 -4 9 -9z m9955 -19 c0
-18 -20 -15 -23 4 -3 10 1 15 10 12 7 -3 13 -10 13 -16z m-10215 -27 c13 -16
6 -35 -15 -35 -18 0 -28 17 -21 35 7 19 20 19 36 0z m10221 -70 c35 -36 64
-70 64 -77 0 -6 -31 -20 -70 -29 -63 -16 -71 -16 -87 -2 -27 24 -39 101 -23
140 20 49 44 42 116 -32z m-10131 -11 c0 -8 -9 -14 -20 -14 -19 0 -27 19 -14
33 10 9 34 -4 34 -19z m9957 14 c31 -14 44 -28 37 -40 -10 -16 -34 -8 -66 22
-36 32 -23 40 29 18z m-9867 -28 c0 -5 -11 -20 -25 -34 -14 -14 -25 -34 -25
-45 0 -11 -11 -28 -25 -37 -15 -9 -25 -26 -25 -39 0 -12 -7 -36 -15 -51 -8
-16 -15 -45 -15 -64 0 -20 -4 -40 -9 -45 -5 -6 -11 -21 -13 -35 -2 -15 -11
-26 -22 -28 -18 -4 -19 1 -13 78 4 67 12 96 40 154 42 84 101 156 128 156 10
0 19 -4 19 -10z m-193 -56 c7 -18 -17 -38 -31 -24 -11 11 -1 40 14 40 6 0 13
-7 17 -16z m10355 -71 c22 -25 92 -168 112 -230 10 -29 16 -65 14 -80 -3 -24
-8 -28 -40 -31 -35 -3 -37 -1 -91 81 -30 46 -76 113 -101 148 -26 35 -45 70
-44 79 2 8 28 22 58 32 70 21 74 22 92 1z m-1248 -8 c3 -8 1 -15 -4 -15 -6 0
-10 7 -10 15 0 8 2 15 4 15 2 0 6 -7 10 -15z m-9227 -29 c-9 -23 -37 -20 -37
3 0 21 20 33 34 20 5 -4 6 -15 3 -23z m10573 3 c0 -11 -4 -17 -10 -14 -5 3
-10 13 -10 21 0 8 5 14 10 14 6 0 10 -9 10 -21z m-10472 -22 c2 -12 -3 -17
-17 -17 -15 0 -21 6 -21 21 0 25 33 22 38 -4z m9182 -60 c0 -20 -25 1 -28 24
-2 23 -2 23 13 5 8 -11 15 -24 15 -29z m1089 -86 c77 -114 86 -141 46 -141
-48 0 -80 26 -108 87 -34 77 -52 146 -43 168 9 25 17 16 105 -114z m-204 79
c0 -22 -29 -18 -33 3 -3 14 1 18 15 15 10 -2 18 -10 18 -18z m-10117 -48 c3
-17 -2 -22 -17 -22 -14 0 -21 6 -21 18 0 38 33 41 38 4z m10135 -26 c3 -8 3
-16 0 -19 -9 -10 -33 5 -33 19 0 18 26 18 33 0z m481 -46 c-14 -14 -39 14 -29
31 5 8 12 6 23 -5 11 -11 13 -19 6 -26z m-471 -25 c8 -18 -11 -31 -25 -17 -11
11 -3 32 12 32 4 0 10 -7 13 -15z m-10113 -9 c0 -8 -7 -16 -15 -20 -15 -5 -21
14 -8 27 11 12 23 8 23 -7z m-85 -22 c0 -10 -8 -20 -17 -22 -18 -3 -26 27 -11
42 12 11 28 0 28 -20z m10295 -4 c0 -5 -7 -10 -15 -10 -8 0 -15 5 -15 10 0 6
7 10 15 10 8 0 15 -4 15 -10z m-10662 -35 c123 -21 239 -55 267 -77 38 -30 34
-70 -12 -107 -128 -104 -297 -221 -319 -221 -21 0 -30 10 -50 54 -29 64 -74
234 -74 281 0 18 9 44 21 59 24 31 47 32 167 11z m11086 -45 c-14 -14 -38 5
-30 26 6 16 8 16 23 1 11 -11 14 -20 7 -27z m-538 -35 c32 -73 31 -87 -3 -83
-26 3 -28 7 -34 63 -9 94 1 99 37 20z m119 35 c4 -6 4 -18 1 -27 -5 -12 -9
-13 -21 -3 -8 7 -15 19 -15 26 0 16 26 19 35 4z m-8737 -17 c-2 -12 -21 -21
-68 -30 -70 -14 -90 -12 -90 11 0 17 57 33 118 35 36 1 43 -2 40 -16z m1286
-20 c-9 -21 -22 -56 -30 -78 -31 -87 -37 -93 -114 -105 -25 -4 -53 -11 -62
-15 -15 -6 -18 -2 -17 31 0 22 6 71 12 109 l12 70 70 11 c39 7 87 12 108 13
l37 1 -16 -37z m7794 -15 c3 -13 -3 -18 -21 -18 -24 0 -42 21 -29 34 12 13 47
1 50 -16z m-358 -33 c0 -8 -9 -15 -20 -15 -20 0 -26 11 -13 23 12 13 33 7 33
-8z m-3730 -40 c0 -28 -87 -101 -164 -138 -83 -41 -98 -44 -116 -22 -15 18
-19 14 56 54 33 18 83 52 110 76 36 33 58 44 82 45 22 0 32 -5 32 -15z m4190
-5 c0 -11 -7 -20 -15 -20 -8 0 -15 9 -15 20 0 11 7 20 15 20 8 0 15 -9 15 -20z
m-373 -16 c9 -23 -11 -38 -26 -20 -13 16 -7 36 10 36 5 0 12 -7 16 -16z m241
4 c33 -33 -3 -202 -69 -328 -37 -70 -112 -170 -128 -170 -4 0 -1 35 7 78 7 42
14 124 14 182 0 86 5 116 25 169 13 36 27 69 29 73 8 13 109 9 122 -4z m-191
-20 c-3 -8 -6 -5 -6 6 -1 11 2 17 5 13 3 -3 4 -12 1 -19z m-10007 -3 c0 -8 -7
-15 -15 -15 -8 0 -15 7 -15 15 0 8 7 15 15 15 8 0 15 -7 15 -15z m1316 0 c7
-17 -51 -148 -75 -170 -28 -24 -72 -28 -111 -8 -19 10 -35 23 -35 30 0 11 191
161 208 162 4 1 10 -6 13 -14z m-1266 -19 c0 -20 -19 -31 -32 -18 -6 6 -7 15
-4 21 10 16 36 13 36 -3z m9768 2 c-3 -8 -25 -14 -54 -15 l-49 -2 30 14 c38
18 78 19 73 3z m470 -11 c2 -10 -3 -17 -11 -17 -16 0 -30 24 -19 34 10 10 27
1 30 -17z m-10194 -20 c-7 -20 -34 -23 -34 -4 0 19 22 39 32 29 5 -5 6 -16 2
-25z m-510 -9 c9 -12 16 -32 16 -43 0 -11 -21 -110 -47 -219 -39 -164 -53
-204 -74 -228 -15 -15 -37 -28 -48 -28 -41 0 -221 209 -221 256 0 38 29 85 73
118 50 38 260 165 274 165 6 1 19 -9 27 -21z m10334 -11 c2 -10 -3 -17 -12
-17 -9 0 -16 2 -16 4 0 2 -3 12 -6 21 -5 13 -2 16 12 13 10 -2 20 -11 22 -21z
m-10168 -27 c0 -11 -7 -20 -15 -20 -13 0 -14 4 -5 20 6 11 13 20 15 20 3 0 5
-9 5 -20z m10578 -18 c2 -12 -1 -22 -7 -22 -13 0 -32 35 -24 44 12 12 28 0 31
-22z m-488 4 c0 -2 3 -12 6 -21 6 -13 1 -16 -22 -13 -38 4 -47 38 -10 38 14 0
26 -2 26 -4z m125 -15 c3 -5 1 -12 -5 -16 -5 -3 -10 1 -10 9 0 18 6 21 15 7z
m-4181 -17 c12 -32 5 -44 -41 -68 -77 -38 -193 -60 -328 -60 -112 -1 -120 0
-120 18 0 26 32 34 171 46 86 7 134 18 205 44 113 41 105 40 113 20z m4494
-27 c2 -10 -3 -17 -11 -17 -16 0 -30 24 -19 34 10 10 27 1 30 -17z m-10463
-43 c0 -10 -8 -20 -18 -22 -22 -4 -35 27 -16 39 20 12 34 5 34 -17z m1269 -2
c36 -21 35 -36 -1 -40 -15 -1 -48 -8 -72 -14 -39 -10 -45 -9 -57 7 -22 29 -17
45 19 60 35 16 67 12 111 -13z m8846 13 c0 -8 -4 -15 -10 -15 -5 0 -10 7 -10
15 0 8 5 15 10 15 6 0 10 -7 10 -15z m-1720 -5 c0 -5 -2 -10 -4 -10 -3 0 -8 5
-11 10 -3 6 -1 10 4 10 6 0 11 -4 11 -10z m1420 -30 c0 -24 -25 -27 -34 -4
-13 33 -7 45 14 34 11 -6 20 -20 20 -30z m-9880 -20 c114 -94 221 -137 420
-169 151 -25 228 -43 340 -82 131 -45 165 -37 158 38 -2 28 1 38 13 41 24 5
89 -141 89 -201 0 -60 -20 -80 -123 -124 -154 -66 -322 -103 -470 -103 -306 0
-617 124 -617 246 0 61 39 196 109 377 12 32 15 31 81 -23z m9985 -2 c31 -66
31 -78 2 -78 -29 0 -67 27 -67 47 0 25 23 83 32 83 5 0 20 -24 33 -52z m90
-12 c0 -47 -9 -46 -29 4 -22 55 -21 65 6 48 17 -11 23 -25 23 -52z m-4591 48
c9 -3 16 -15 16 -25 0 -15 -7 -19 -34 -19 -37 0 -51 12 -42 35 6 16 33 19 60
9z m3372 -41 c31 -53 112 -173 146 -216 18 -22 20 -29 9 -40 -10 -10 -19 -5
-43 23 -60 71 -179 253 -174 266 10 27 35 13 62 -33z m-190 -8 c-22 -19 -43
-35 -47 -35 -4 0 -10 12 -13 27 -9 33 5 43 59 42 l40 0 -39 -34z m1904 -9
c-15 -15 -34 9 -26 31 7 17 8 17 22 -1 9 -13 11 -23 4 -30z m-2022 16 c2 -7
-3 -12 -12 -12 -9 0 -16 7 -16 16 0 17 22 14 28 -4z m1606 2 c9 -23 8 -24 -14
-24 -19 0 -27 20 -13 33 11 11 20 8 27 -9z m-1156 -27 c2 -10 -3 -17 -11 -17
-16 0 -30 24 -19 34 10 10 27 1 30 -17z m-206 -34 c18 -27 65 -93 105 -147 41
-55 76 -110 79 -122 5 -21 -32 -94 -56 -109 -12 -8 -148 121 -183 174 -13 20
-41 62 -62 94 l-38 58 49 50 c26 27 54 49 61 49 6 0 27 -21 45 -47z m1716 8
c3 -16 -1 -22 -10 -19 -7 3 -15 15 -16 27 -3 16 1 22 10 19 7 -3 15 -15 16
-27z m98 -78 c-20 -96 -66 -234 -81 -239 -15 -6 -85 24 -85 36 0 5 23 40 52
77 28 37 67 101 86 141 19 40 37 71 39 68 3 -2 -2 -40 -11 -83z m-10311 51 c0
-10 -8 -20 -17 -22 -18 -3 -26 27 -11 42 12 11 28 0 28 -20z m8233 14 c18 -18
15 -28 -8 -28 -13 0 -20 7 -20 20 0 23 10 26 28 8z m1917 -21 c0 -26 -20 -25
-23 2 -3 16 1 22 10 19 7 -3 13 -12 13 -21z m-9055 4 c0 -16 -75 -104 -139
-163 -56 -52 -66 -58 -106 -58 -63 0 -100 36 -120 115 -8 32 -11 63 -7 67 5 5
80 17 168 27 191 23 204 24 204 12z m7857 -22 c25 -16 31 -25 24 -32 -14 -14
-81 19 -81 40 0 19 17 16 57 -8z m947 0 c-3 -5 -10 -7 -15 -3 -5 3 -7 10 -3
15 3 5 10 7 15 3 5 -3 7 -10 3 -15z m-1179 -9 c0 -22 -29 -18 -33 3 -3 14 1
18 15 15 10 -2 18 -10 18 -18z m553 -18 c2 -13 8 -19 17 -16 7 3 16 1 20 -5 3
-6 -1 -14 -9 -17 -17 -7 -55 31 -56 54 0 22 25 7 28 -16z m-38 -18 c0 -8 -4
-12 -10 -9 -5 3 -10 10 -10 16 0 5 5 9 10 9 6 0 10 -7 10 -16z m-892 -48 c3
-13 -1 -17 -14 -14 -11 2 -20 11 -22 22 -3 13 1 17 14 14 11 -2 20 -11 22 -22z
m1852 -7 c0 -12 -27 -11 -35 1 -11 17 5 32 21 19 8 -6 14 -15 14 -20z m-1350
-9 c0 -11 -7 -20 -15 -20 -8 0 -15 9 -15 20 0 11 7 20 15 20 8 0 15 -9 15 -20z
m70 0 c0 -5 -4 -10 -10 -10 -5 0 -10 5 -10 10 0 6 5 10 10 10 6 0 10 -4 10
-10z m1203 -15 c7 -16 -8 -29 -23 -20 -15 9 -12 35 4 35 8 0 16 -7 19 -15z
m-1033 -12 c0 -26 -16 -47 -29 -39 -12 8 -15 39 -4 49 13 13 33 7 33 -10z
m245 -33 c0 -61 -22 -63 -63 -6 -18 24 -32 47 -32 51 0 3 21 5 48 3 l47 -3 0
-45z m709 10 c-14 -14 -39 14 -29 31 5 8 12 6 23 -5 11 -11 13 -19 6 -26z
m-1687 -6 c8 -21 -13 -42 -28 -27 -13 13 -5 43 11 43 6 0 13 -7 17 -16z m863
-31 l34 -46 -34 6 c-45 9 -60 24 -60 58 0 42 22 36 60 -18z m490 16 c0 -17
-20 -49 -30 -49 -11 0 -14 43 -3 53 10 11 33 8 33 -4z m-320 -79 c0 -5 -4 -10
-10 -10 -5 0 -10 5 -10 10 0 6 5 10 10 10 6 0 10 -4 10 -10z m-493 -25 l28
-24 -27 -1 c-17 0 -31 7 -38 19 -21 40 -4 42 37 6z m1247 -36 c50 -40 27 -95
-92 -221 -102 -107 -115 -115 -147 -94 -31 20 -108 153 -101 172 3 8 25 23 48
33 24 10 81 44 128 75 93 61 123 67 164 35z m-4999 -34 c47 -41 48 -44 24 -45
-27 0 -99 56 -99 78 0 23 25 12 75 -33z m4793 18 c-4 -22 -22 -20 -26 1 -2 10
3 16 13 16 10 0 15 -7 13 -17z m-1448 -8 c9 -11 10 -19 2 -27 -14 -14 -32 -1
-32 23 0 23 13 25 30 4z m88 -29 c3 -13 -1 -17 -14 -14 -11 2 -20 11 -22 22
-3 13 1 17 14 14 11 -2 20 -11 22 -22z m582 14 c0 -5 -7 -10 -15 -10 -8 0 -15
5 -15 10 0 6 7 10 15 10 8 0 15 -4 15 -10z m140 -21 c0 -20 -15 -26 -25 -9 -9
15 3 43 15 35 5 -3 10 -15 10 -26z m-572 -7 c2 -13 -3 -25 -13 -28 -23 -9 -38
10 -30 36 9 27 39 22 43 -8z m355 -7 c63 -29 128 -52 257 -92 34 -10 -47 -36
-130 -41 -107 -6 -230 10 -322 42 -94 33 -104 43 -87 90 l13 36 97 0 c89 0
102 -3 172 -35z m287 -41 c0 -8 -4 -14 -10 -14 -5 0 -10 9 -10 21 0 11 5 17
10 14 6 -3 10 -13 10 -21z m-760 -10 c0 -8 -7 -14 -15 -14 -15 0 -21 21 -9 33
10 9 24 -2 24 -19z m135 -64 c0 -7 -6 -15 -12 -17 -8 -3 -13 4 -13 17 0 13 5
20 13 18 6 -3 12 -11 12 -18z m-87 -8 c2 -7 -3 -12 -12 -12 -9 0 -16 7 -16 16
0 17 22 14 28 -4z m1101 -57 c50 -79 63 -109 54 -131 -14 -36 -195 -94 -304
-97 -53 -1 -64 2 -80 22 -11 13 -19 33 -19 45 0 25 26 66 42 66 25 0 143 65
200 110 34 28 62 50 64 50 1 0 21 -29 43 -65z m-881 21 c3 -12 -1 -17 -10 -14
-7 3 -15 13 -16 22 -3 12 1 17 10 14 7 -3 15 -13 16 -22z m602 -7 c0 -24 -23
-21 -28 4 -2 10 3 17 12 17 10 0 16 -9 16 -21z m80 -10 c0 -24 -23 -21 -28 4
-2 10 3 17 12 17 10 0 16 -9 16 -21z m-273 -5 c1 -5 -2 -16 -7 -24 -12 -20
-35 2 -26 25 6 17 27 16 33 -1z m-199 -17 c2 -12 -3 -17 -17 -17 -15 0 -21 6
-21 21 0 25 33 22 38 -4z m262 -22 c0 -18 -4 -23 -15 -19 -16 6 -20 26 -8 37
13 14 23 6 23 -18z m-201 -8 c12 -15 5 -27 -16 -27 -7 0 -13 9 -13 20 0 23 13
26 29 7z m-132 -33 c1 -5 -2 -16 -7 -24 -12 -20 -35 2 -26 25 6 17 27 16 33
-1z m223 -9 c0 -19 -20 -29 -32 -17 -15 15 -2 43 17 36 8 -3 15 -12 15 -19z
m-144 -55 c70 -7 121 -8 164 -1 35 6 67 8 71 5 12 -7 11 -51 -2 -76 -10 -19
-17 -20 -82 -13 -106 10 -231 42 -303 78 -35 17 -64 34 -64 38 0 3 26 0 58 -7
31 -7 103 -18 158 -24z"/>
</g>
</svg>
